<svg width="41" height="40" viewBox="0 0 41 40" fill="none" xmlns="http://www.w3.org/2000/svg">
<path d="M27.0468 11.9649C26.7191 11.639 26.1897 11.639 25.8613 11.9649L17.549 20.2859L15.1704 17.7643C15.0121 17.5931 14.7899 17.4958 14.5566 17.4952C14.3238 17.4958 14.1017 17.5931 13.9434 17.7643L10.9598 20.9666C10.6449 21.292 10.6449 21.8091 10.9598 22.1344L16.9023 28.0851H16.9018C17.0606 28.2428 17.2752 28.3302 17.4986 28.329C17.722 28.3302 17.9366 28.2428 18.0954 28.0851L30.0304 16.1249C30.1893 15.9672 30.279 15.7521 30.279 15.5281C30.279 15.3041 30.1893 15.0896 30.0304 14.9313L27.0468 11.9649ZM17.5156 26.2531L12.7415 21.4709L14.5572 19.5209L16.9187 22.0426C17.077 22.2067 17.2957 22.2993 17.5238 22.2993C17.7518 22.2993 17.9705 22.2067 18.1288 22.0426L26.4581 13.7051L28.2486 15.4956L17.5156 26.2531Z" fill="#2D488E"/>
<path d="M20.4997 3.3334C16.0791 3.3334 11.8403 5.08927 8.71432 8.21469C5.58889 11.3407 3.83301 15.5795 3.83301 20C3.83301 24.4205 5.58889 28.6593 8.71432 31.7853C11.8403 34.9107 16.0791 36.6666 20.4997 36.6666C24.9202 36.6666 29.159 34.9107 32.285 31.7853C35.4105 28.6593 37.1663 24.4205 37.1663 20C37.1622 15.5813 35.4046 11.3442 32.2796 8.21994C29.1554 5.09513 24.9183 3.33745 20.4995 3.33325L20.4997 3.3334ZM20.4997 34.9778C16.5247 34.9778 12.7127 33.3984 9.90211 30.5872C7.09142 27.7765 5.51324 23.964 5.51384 19.989C5.51444 16.0141 7.09442 12.2021 9.90632 9.39212C12.7175 6.58204 16.5308 5.00447 20.5057 5.00612C24.4806 5.0073 28.2921 6.58789 31.1016 9.40023C33.9111 12.212 35.4882 16.0252 35.4858 20.0001C35.4811 23.9734 33.901 27.7825 31.0917 30.5918C28.2823 33.4011 24.4731 34.9813 20.5 34.9859L20.4997 34.9778Z" fill="#2D488E"/>
</svg>
