<svg width="22" height="22" viewBox="0 0 22 22" fill="none" xmlns="http://www.w3.org/2000/svg">
<g clip-path="url(#clip0_1_5)">
<path d="M8.80015 0.382264C8.94332 0.545356 9.03103 0.74495 9.05195 0.955257C9.07286 1.16556 9.02603 1.37692 8.91749 1.56201C8.06953 3.02154 7.6267 4.65754 7.62973 6.31951C7.62973 11.8484 12.4375 16.3254 18.363 16.3254C19.1359 16.3254 19.8883 16.2498 20.6114 16.1054C20.8331 16.0604 21.064 16.0776 21.2752 16.1549C21.4865 16.2321 21.6688 16.3661 21.7994 16.5399C21.9373 16.7206 22.0076 16.939 21.9994 17.1611C21.9911 17.3831 21.9049 17.5964 21.754 17.7678C20.6036 19.0925 19.1524 20.1598 17.5062 20.892C15.86 21.6242 14.0602 22.0027 12.2381 22C5.47663 22 0 16.8933 0 10.6013C0 5.86576 3.10059 1.80401 7.51533 0.0825137C7.73524 -0.00461749 7.97937 -0.0225008 8.21105 0.0315502C8.44273 0.0856013 8.64945 0.208668 8.80015 0.382264ZM7.12519 1.80264C5.42764 2.65628 4.00852 3.92515 3.01864 5.47439C2.02877 7.02363 1.50512 8.79535 1.50336 10.6013C1.50336 16.1288 6.31264 20.6058 12.2381 20.6058C13.657 20.6081 15.0624 20.3465 16.3728 19.8362C17.6832 19.326 18.8726 18.5771 19.8722 17.633C19.3779 17.6908 18.8749 17.7196 18.363 17.7196C11.6015 17.7196 6.12637 12.6129 6.12637 6.32089C6.12637 4.71626 6.48131 3.18864 7.12519 1.80264Z" fill="#2D488E"/>
</g>
<defs>
<clipPath id="clip0_1_5">
<rect width="22" height="22" fill="white"/>
</clipPath>
</defs>
</svg>
