<svg width="32" height="32" viewBox="0 0 36 36" fill="none" xmlns="http://www.w3.org/2000/svg">
<g clip-path="url(#clip0_1_2)">
<path fill-rule="evenodd" clip-rule="evenodd" d="M6.13578 0.0120829C5.49653 0.0120943 5.65048 0.740736 5.62201 5.88134L5.62191 11.4813L6.13556 11.7164C6.51903 11.8921 6.93045 12.482 7.75999 14.0463C8.93039 16.2531 10.0841 17.7095 11.133 18.3037C12.0588 18.8281 11.907 20.3265 10.8313 21.281C9.92146 22.0884 9.36111 23.0143 9.36318 23.7065C9.36568 24.5225 9.4598 24.524 10.8913 23.7305C13.1911 22.4557 13.5281 22.2064 13.6602 21.6814C13.7298 21.4052 14.1126 20.3591 14.5111 19.3568L15.2354 17.5342L14.8701 16.7425C14.6692 16.307 14.1763 15.4847 13.7748 14.9154C12.1689 12.6381 12.0542 13.0839 12.0258 6.48694C11.9996 0.389737 12.2115 -0.00350046 11.5249 -0.000129165C10.6791 0.00402417 6.661 0.0120736 6.13578 0.0120829ZM22.2389 5.88104C18.9162 9.1092 15.6681 12.2408 15.0209 12.8401L13.8441 13.9297L14.6064 15.0576C15.9814 17.0922 16.0147 17.3777 15.1293 19.5333C14.2665 21.6341 14.311 21.6991 15.6987 20.3643L16.9023 19.2067L17.395 19.8092C17.666 20.1405 20.5168 24.3452 23.5503 28.4567C26.5838 32.568 28.4236 35.8811 29.1544 35.8836C30.1138 35.8869 34.3385 35.8846 35.6722 35.8838C35.8381 35.8837 35.9342 35.6937 35.836 35.5599C35.1677 34.6494 33.0195 31.6438 28.2798 24.397C24.877 19.1943 21.8124 14.9187 21.812 14.8323C21.8113 14.6607 23.7709 13.2695 30.5657 6.04731C37.2817 -1.09116 37.5735 -0.121243 31.6763 -0.00293914L28.6835 0.00994216C28.4248 0.0110558 28.1765 0.112405 27.991 0.292695L22.2389 5.88104ZM4.87082 12.357C4.71978 12.529 4.54502 12.7589 4.4825 12.8678C4.41989 12.9768 4.78585 13.9707 5.29572 15.0765C5.931 16.4546 6.16352 17.1452 6.0346 17.2713C5.76559 17.5345 5.65033 17.357 4.74218 15.2805C3.87401 13.2957 3.67926 13.1043 2.98178 13.5518C2.32112 13.9756 2.39722 14.6108 3.35714 16.6869C4.03735 18.1581 4.1354 18.4947 3.90832 18.5803C3.56904 18.7082 3.66782 18.8517 2.81866 16.9965C2.11438 15.4578 1.89482 15.2401 1.46799 15.6576C0.958326 16.1562 1.99056 19.1818 2.6692 19.1789C2.80904 19.1783 3.01843 19.3777 3.13453 19.6221C3.2713 19.91 3.49546 20.0658 3.77101 20.0646C4.25922 20.0625 4.8554 20.8061 4.69492 21.217C4.61427 21.4233 4.73152 21.4853 5.19833 21.4833C6.17731 21.4791 6.75945 22.4597 6.24802 23.2513C6.1299 23.4341 6.18562 23.5815 6.43656 23.7504C6.97123 24.1102 6.8921 24.8827 6.25989 25.4753L5.72269 25.9787L5.72261 30.8326C5.78848 36.4521 5.16672 35.9284 9.0189 35.9283C12.8711 35.9282 12.3258 36.7838 12.326 29.5501C12.326 26.3699 12.2525 23.7683 12.1932 23.7685C12.1339 23.7688 11.5693 24.0517 10.9387 24.3973C9.2569 25.3188 8.75582 25.1659 8.75147 23.7293C8.74863 22.7932 9.11711 22.0881 10.0941 21.1604C10.9997 20.3006 11.384 19.0504 10.7972 18.8725C10.0554 18.6477 8.44743 16.6641 7.39487 14.6755C6.21825 12.4525 5.91503 12.0408 5.45584 12.0428C5.28515 12.0435 5.02186 12.1849 4.87082 12.357ZM0.644253 17.7034C0.393353 17.9489 0.600664 19.544 0.883376 19.5428C1.51105 19.5401 1.666 19.0602 1.27609 18.3266C0.857397 17.539 0.83499 17.5169 0.644253 17.7034ZM0.854332 20.2827C-0.0709546 20.8578 -0.155121 20.9937 0.225592 21.2974C0.525961 21.5371 2.43034 20.4719 2.51909 20.0145C2.61081 19.5422 1.84821 19.6651 0.854332 20.2827ZM1.86918 21.3596C0.503067 22.1488 0.16462 22.5769 0.55211 23.0257C0.902041 23.4311 1.28033 23.3221 2.65404 22.4198C4.9518 20.9105 4.26115 19.9778 1.86918 21.3596ZM3.07507 22.8959C1.36108 23.9914 1.04813 24.7962 2.20033 25.1454C2.68615 25.2926 5.3658 23.6139 5.66166 22.9769C6.23109 21.7514 4.92954 21.7106 3.07507 22.8959ZM5.31412 24.3005C4.46184 24.6652 3.31085 25.5363 3.31178 25.816C3.31424 26.5795 4.89743 26.1541 5.88668 25.124C6.51212 24.4727 6.14513 23.9448 5.31412 24.3005Z" fill="#2D488E"/>
</g>
<defs>
<clipPath id="clip0_1_2">
<rect width="36" height="36" fill="white"/>
</clipPath>
</defs>
</svg>
